<?xml version="1.0" encoding="UTF-8" standalone="no"?>
<svg
   xmlns:dc="http://purl.org/dc/elements/1.1/"
   xmlns:cc="http://creativecommons.org/ns#"
   xmlns:rdf="http://www.w3.org/1999/02/22-rdf-syntax-ns#"
   xmlns:svg="http://www.w3.org/2000/svg"
   xmlns="http://www.w3.org/2000/svg"
   xmlns:sodipodi="http://sodipodi.sourceforge.net/DTD/sodipodi-0.dtd"
   xmlns:inkscape="http://www.inkscape.org/namespaces/inkscape"
   width="251.21321"
   height="206.0742"
   viewBox="0 0 66.46666 54.523443"
   version="1.1"
   id="svg827"
   sodipodi:docname="BomDev_INkscape.svg"
   inkscape:version="0.92.5 (2060ec1f9f, 2020-04-08)">
  <title
     id="title906">Bom Dev Software House - Logotipo</title>
  <metadata
     id="metadata831">
    <rdf:RDF>
      <cc:Work
         rdf:about="">
        <dc:format>image/svg+xml</dc:format>
        <dc:type
           rdf:resource="http://purl.org/dc/dcmitype/StillImage" />
        <dc:title>Bom Dev Software House - Logotipo</dc:title>
        <dc:date>18/07/2020</dc:date>
        <dc:creator>
          <cc:Agent>
            <dc:title>GUILHERME HENRIQUE DOS SANTOS FERREIRA</dc:title>
          </cc:Agent>
        </dc:creator>
        <dc:rights>
          <cc:Agent>
            <dc:title>Proprietário</dc:title>
          </cc:Agent>
        </dc:rights>
      </cc:Work>
    </rdf:RDF>
  </metadata>
  <sodipodi:namedview
     pagecolor="#ffffff"
     bordercolor="#666666"
     borderopacity="1"
     objecttolerance="10"
     gridtolerance="10"
     guidetolerance="10"
     inkscape:pageopacity="0"
     inkscape:pageshadow="2"
     inkscape:window-width="1366"
     inkscape:window-height="704"
     id="namedview829"
     showgrid="false"
     inkscape:zoom="0.93888218"
     inkscape:cx="191.77565"
     inkscape:cy="168.03068"
     inkscape:window-x="0"
     inkscape:window-y="27"
     inkscape:window-maximized="1"
     inkscape:current-layer="g839"
     fit-margin-top="0"
     fit-margin-left="0"
     fit-margin-right="0"
     fit-margin-bottom="0" />
  <defs
     id="defs815" />
  <g
     id="g839"
     transform="translate(0.53735916,1.0582215)">
    <path
       style="stroke:#ff0000;stroke-width:2.11666131;stroke-miterlimit:4;stroke-dasharray:none"
       d="M 0.5209715,0 C 21.970971,0 43.420971,0 64.870971,0 c 0,17.469 0,34.938 0,52.407 -21.45,0 -42.9,0 -64.3499995,0 0,-17.469 0,-34.938 0,-52.407 z"
       id="path817"
       inkscape:connector-curvature="0" />
    <path
       style="font-weight:400;font-size:10.58300018px;line-height:1.25;font-family:sans-serif;letter-spacing:0;word-spacing:0;fill:#ffffff;fill-opacity:1;stroke-width:0.1999995;stroke-miterlimit:4;stroke-dasharray:none"
       d="m 8.8938407,44.816368 c 0.1237705,0.873761 -0.2395691,2.234631 0.1659809,2.826612 1.9982634,0.7239 4.8238034,-1.747288 1.9019804,-2.804973 -0.688075,-0.04265 -1.3788742,-0.01273 -2.0679613,-0.02164 z m 0,-3.172833 c 0.2540814,0.742349 -0.6197162,2.612577 0.6639237,2.325367 2.4280746,0.802492 3.2662076,-2.820531 0.3832102,-2.325367 -0.3490446,0 -0.6980892,0 -1.0471339,0 z M 7.8500096,40.785734 c 1.6711744,0.166012 3.9089634,-0.567481 4.9904944,1.096797 1.099451,1.935911 -2.301816,2.32973 0.05297,3.150872 1.610049,2.336601 -1.341174,3.978752 -3.4355582,3.467379 -1.2915237,0.257613 -1.9443335,-0.123487 -1.6079032,-1.493828 0,-2.07374 0,-4.14748 0,-6.22122 z m 10.2057744,0.707944 c -3.615251,0.02982 -3.203611,7.048142 0.538709,6.256527 2.792642,-0.683166 2.585183,-6.270566 -0.538709,-6.256527 z m 0,-0.847466 c 4.025758,-0.197847 4.879376,6.266757 1.459813,7.733134 -2.278295,1.056167 -5.103707,-0.747201 -5.02053,-3.282642 -0.312409,-2.166297 1.175288,-4.603999 3.560717,-4.450492 z m 5.198485,0.139522 c 1.196973,-0.260547 1.931067,0.146839 2.07993,1.398715 0.481431,1.283815 0.962861,2.56763 1.444292,3.851445 0.659715,-1.750054 1.31943,-3.500107 1.979145,-5.25016 1.294677,-0.278264 1.876002,0.156824 1.555412,1.493828 0,2.07374 0,4.14748 0,6.22122 -1.492123,0.488868 -0.924427,-1.082083 -1.017994,-1.991771 0,-1.594265 0,-3.188531 0,-4.782796 -0.66316,1.763833 -1.32632,3.527667 -1.98948,5.2915 -1.329271,0.455944 -1.343104,-0.988025 -1.749952,-1.864354 -0.429509,-1.142382 -0.859018,-2.284764 -1.288526,-3.427146 0,2.258189 0,4.516378 0,6.774567 -1.490651,0.489119 -0.916577,-1.086488 -1.012827,-1.991771 0,-1.907759 0,-3.815518 0,-5.723277 z m 13.538799,0.857801 c 0,1.999815 0,3.99963 0,5.999445 2.173878,0.344833 4.888558,-0.696856 4.329057,-3.382035 0.09465,-2.504298 -2.466876,-2.740141 -4.329057,-2.61741 z m -1.043831,-0.857801 c 2.200724,0.03175 5.265875,-0.403128 6.222938,2.129002 1.049774,2.514196 -0.526714,5.86359 -3.538755,5.571432 -0.8891,-0.252231 -3.038715,0.703985 -2.684183,-0.815291 0,-2.295048 0,-4.590096 0,-6.885143 z m 8.149116,0 c 1.626034,0 3.252068,0 4.878102,0 0.436906,1.44898 -1.324158,0.69999 -2.157752,0.878471 -1.158305,-0.15685 -2.095292,-0.09238 -1.676519,1.327848 -0.452748,1.490725 1.264261,0.811693 2.157752,0.956179 0.963995,-0.504925 2.372409,0.638514 1.018384,0.878471 -1.058712,0 -2.117424,0 -3.176136,0 0.197706,0.844817 -0.41065,2.495696 0.331962,2.795607 1.198441,0 2.396882,0 3.595324,0 0.436905,1.448981 -1.324159,0.699991 -2.157752,0.878472 -0.853381,-0.195062 -2.503608,0.406723 -2.813365,-0.331962 0,-2.461029 0,-4.922058 0,-7.383086 z m 8.676202,7.715048 c -0.981821,-2.571683 -1.963642,-5.143366 -2.945464,-7.715048 1.340976,-0.453082 1.393993,0.954612 1.791808,1.864159 0.580917,1.543788 1.161833,3.087576 1.742749,4.631364 0.816462,-2.165175 1.632924,-4.330349 2.449386,-6.495523 1.682706,-0.452747 0.662053,0.957256 0.37585,1.861186 -0.743658,1.951288 -1.487317,3.902575 -2.230976,5.853862 -0.394451,0 -0.788902,0 -1.183353,0 z"
       id="text823"
       inkscape:connector-curvature="0" />
    <path
       style="stroke:#ff0000;stroke-width:1.99999487;stroke-miterlimit:4;stroke-dasharray:none"
       d="M 1.042,39.688 C 10.194077,34.781031 19.591596,29.674612 26.711641,21.953625 29.75828,18.610414 32.488374,13.592585 30.11564,9.1246666 27.961213,5.2298294 23.741936,3.0542996 19.66,1.707 32.332068,13.101157 45.015407,24.492306 58.206331,35.287596 59.917897,36.741625 61.616796,38.210504 63.309,39.687"
       id="path825"
       inkscape:connector-curvature="0" />
  </g>
</svg>
