<?xml version="1.0" encoding="UTF-8" standalone="no"?>
<svg
   xmlns:dc="http://purl.org/dc/elements/1.1/"
   xmlns:cc="http://creativecommons.org/ns#"
   xmlns:rdf="http://www.w3.org/1999/02/22-rdf-syntax-ns#"
   xmlns:svg="http://www.w3.org/2000/svg"
   xmlns="http://www.w3.org/2000/svg"
   xmlns:sodipodi="http://sodipodi.sourceforge.net/DTD/sodipodi-0.dtd"
   xmlns:inkscape="http://www.inkscape.org/namespaces/inkscape"
   width="251.213"
   height="206.074"
   viewBox="0 0 66.467 54.523"
   version="1.1"
   id="svg10"
   sodipodi:docname="BomDev.svg"
   inkscape:version="0.92.5 (2060ec1f9f, 2020-04-08)">
  <metadata
     id="metadata14">
    <rdf:RDF>
      <cc:Work
         rdf:about="">
        <dc:format>image/svg+xml</dc:format>
        <dc:type
           rdf:resource="http://purl.org/dc/dcmitype/StillImage" />
      </cc:Work>
    </rdf:RDF>
  </metadata>
  <sodipodi:namedview
     pagecolor="#ffffff"
     bordercolor="#666666"
     borderopacity="1"
     objecttolerance="10"
     gridtolerance="10"
     guidetolerance="10"
     inkscape:pageopacity="0"
     inkscape:pageshadow="2"
     inkscape:window-width="1366"
     inkscape:window-height="704"
     id="namedview12"
     showgrid="false"
     inkscape:zoom="1.1452196"
     inkscape:cx="189.28516"
     inkscape:cy="92.558648"
     inkscape:window-x="1366"
     inkscape:window-y="27"
     inkscape:window-maximized="1"
     inkscape:current-layer="svg10" />
  <defs
     id="defs2" />
  <path
     d="M1.058 1.058h64.35v52.407H1.058V1.058z"
     id="path4"
     style="fill:none;stroke:#ff0000;stroke-opacity:1"
     stroke-width="2.117"
     stroke="red" />
  <path
     fill="#fff"
     d="M9.431 45.875c.124.873-.24 2.234.166 2.826 1.998.724 4.824-1.747 1.902-2.805-.688-.042-1.379-.013-2.068-.021zm0-3.173c.254.742-.62 2.612.664 2.325 2.428.803 3.266-2.82.383-2.325H9.431zm-1.044-.858c1.672.166 3.91-.568 4.99 1.097 1.1 1.936-2.301 2.33.054 3.15 1.61 2.337-1.341 3.98-3.436 3.468-1.291.258-1.944-.123-1.608-1.494v-6.221zm10.206.708c-3.615.03-3.203 7.048.539 6.256 2.792-.683 2.585-6.27-.539-6.256zm0-.848c4.026-.197 4.88 6.267 1.46 7.734-2.278 1.056-5.104-.748-5.02-3.283-.313-2.166 1.175-4.604 3.56-4.45zm5.199.14c1.197-.26 1.93.147 2.08 1.399l1.444 3.851 1.979-5.25c1.295-.278 1.876.157 1.555 1.494v6.221c-1.492.489-.924-1.082-1.018-1.992v-4.783l-1.99 5.292c-1.328.456-1.342-.988-1.749-1.864l-1.289-3.428v6.775c-1.49.49-.916-1.086-1.012-1.992v-5.723zm13.538.858v6c2.174.344 4.889-.698 4.33-3.383.094-2.504-2.467-2.74-4.33-2.617zm-1.043-.858c2.2.032 5.265-.403 6.223 2.129 1.05 2.514-.527 5.864-3.54 5.571-.888-.252-3.038.704-2.683-.815v-6.885zm8.149 0h4.878c.437 1.449-1.324.7-2.158.878-1.158-.156-2.095-.092-1.676 1.328-.453 1.491 1.264.812 2.157.956.964-.504 2.373.639 1.019.879H45.48c.197.845-.411 2.496.332 2.796h3.595c.437 1.449-1.324.7-2.158.878-.853-.195-2.504.407-2.813-.332v-7.383zm8.676 7.715l-2.946-7.715c1.341-.453 1.394.955 1.792 1.864l1.743 4.631 2.45-6.495c1.682-.453.661.957.375 1.861l-2.23 5.854h-1.184z"
     font-family="sans-serif"
     font-size="10.583"
     font-weight="400"
     letter-spacing="0"
     style="line-height:1.25;fill:#ff0000;fill-opacity:1"
     word-spacing="0"
     id="path6" />
  <path
     stroke="red"
     stroke-width="2"
     d="M1.58 40.746c9.151-4.907 18.549-10.013 25.669-17.734 3.047-3.343 5.777-8.361 3.404-12.83-2.154-3.894-6.374-6.07-10.456-7.417C32.87 14.16 45.553 25.551 58.744 36.345a510.16 510.16 0 015.102 4.4"
     id="path8"
     style="fill:none" />
</svg>
